<?xml version="1.0" standalone="no"?>
<!DOCTYPE svg PUBLIC "-//W3C//DTD SVG 20010904//EN"
 "http://www.w3.org/TR/2001/REC-SVG-20010904/DTD/svg10.dtd">
<svg version="1.0" xmlns="http://www.w3.org/2000/svg"
 width="30.000000pt" height="30.000000pt" viewBox="0 0 568.000000 628.000000"
 preserveAspectRatio="xMidYMid meet">

<g transform="translate(0.000000,628.000000) scale(0.100000,-0.100000)"
fill="#4299e1" stroke="none">
<path d="M2820 6061 c0 -5 -25 -11 -56 -13 -31 -3 -59 -10 -63 -16 -3 -6 -19
-14 -34 -17 -15 -4 -27 -11 -27 -15 0 -4 -11 -11 -25 -14 -14 -4 -25 -10 -25
-15 0 -5 -13 -12 -30 -16 -16 -4 -30 -11 -30 -16 0 -5 -7 -9 -15 -9 -9 0 -18
-6 -21 -14 -3 -8 -19 -18 -35 -21 -16 -4 -29 -11 -29 -16 0 -5 -9 -9 -20 -9
-11 0 -23 -6 -26 -14 -3 -8 -19 -18 -35 -21 -16 -4 -29 -10 -29 -15 0 -4 -11
-11 -25 -14 -14 -4 -25 -10 -25 -15 0 -5 -13 -12 -29 -16 -16 -3 -32 -13 -35
-21 -3 -8 -12 -14 -21 -14 -8 0 -15 -4 -15 -9 0 -5 -13 -12 -30 -16 -16 -4
-30 -11 -30 -16 0 -5 -11 -11 -25 -15 -14 -3 -25 -10 -25 -14 0 -5 -13 -11
-29 -15 -16 -3 -32 -13 -35 -21 -3 -8 -12 -14 -21 -14 -8 0 -15 -4 -15 -9 0
-5 -13 -12 -30 -16 -16 -4 -30 -11 -30 -16 0 -5 -11 -11 -25 -15 -14 -3 -25
-10 -25 -15 0 -5 -7 -9 -15 -9 -9 0 -18 -6 -21 -14 -3 -8 -19 -18 -35 -21 -16
-4 -29 -10 -29 -15 0 -4 -11 -11 -25 -14 -14 -4 -25 -10 -25 -15 0 -5 -13 -12
-30 -16 -16 -4 -30 -11 -30 -16 0 -5 -7 -9 -15 -9 -9 0 -18 -6 -21 -14 -3 -8
-19 -18 -35 -21 -16 -4 -29 -10 -29 -15 0 -4 -11 -11 -25 -14 -14 -4 -25 -10
-25 -15 0 -5 -13 -12 -29 -16 -16 -3 -32 -13 -35 -21 -3 -8 -12 -14 -21 -14
-8 0 -15 -4 -15 -9 0 -5 -12 -12 -27 -16 -15 -3 -34 -15 -43 -25 -9 -10 -28
-22 -43 -25 -15 -4 -27 -11 -27 -15 0 -4 -11 -11 -25 -14 -14 -4 -25 -10 -25
-15 0 -5 -13 -12 -30 -16 -16 -4 -30 -11 -30 -16 0 -5 -7 -9 -15 -9 -9 0 -18
-6 -21 -14 -3 -8 -19 -18 -35 -21 -16 -4 -29 -10 -29 -15 0 -4 -11 -11 -25
-14 -14 -4 -25 -10 -25 -15 0 -5 -13 -12 -29 -16 -16 -3 -32 -13 -35 -21 -3
-8 -12 -14 -21 -14 -8 0 -15 -4 -15 -9 0 -5 -13 -12 -30 -16 -16 -4 -30 -11
-30 -16 0 -5 -11 -11 -25 -15 -14 -3 -25 -10 -25 -14 0 -5 -13 -11 -29 -15
-16 -3 -32 -13 -35 -21 -3 -8 -12 -14 -21 -14 -8 0 -15 -4 -15 -9 0 -5 -14
-12 -30 -16 -17 -4 -30 -11 -30 -16 0 -5 -11 -11 -25 -15 -14 -3 -25 -10 -25
-15 0 -5 -7 -9 -15 -9 -9 0 -18 -6 -21 -14 -3 -8 -16 -17 -30 -20 -13 -4 -24
-11 -24 -16 0 -6 -6 -10 -13 -10 -13 0 -47 -34 -47 -48 0 -4 -9 -15 -20 -25
-11 -9 -20 -23 -20 -31 0 -8 -5 -16 -10 -18 -6 -2 -14 -29 -17 -61 -3 -31 -10
-57 -14 -57 -5 0 -9 -568 -9 -1270 0 -699 4 -1270 9 -1270 4 0 11 -28 15 -63
3 -34 11 -63 16 -65 6 -2 10 -10 10 -18 0 -8 7 -17 15 -20 8 -4 15 -12 15 -19
0 -17 43 -61 68 -70 12 -3 22 -11 22 -16 0 -5 7 -9 15 -9 9 0 18 -6 21 -14 3
-8 19 -18 35 -21 16 -4 29 -11 29 -16 0 -5 11 -11 25 -15 14 -3 25 -10 25 -14
0 -5 13 -11 29 -15 16 -3 32 -13 35 -21 3 -8 12 -14 21 -14 8 0 15 -4 15 -9 0
-5 13 -12 30 -16 16 -4 30 -11 30 -16 0 -5 11 -11 25 -15 14 -3 25 -10 25 -14
0 -5 13 -11 29 -15 16 -3 32 -13 35 -21 3 -8 12 -14 21 -14 8 0 15 -4 15 -9 0
-5 11 -12 25 -15 14 -4 25 -10 25 -15 0 -5 14 -12 30 -16 17 -4 30 -11 30 -16
0 -5 7 -9 15 -9 9 0 18 -6 21 -14 3 -8 19 -18 35 -21 16 -4 29 -10 29 -15 0
-4 11 -11 25 -14 14 -4 25 -10 25 -15 0 -5 14 -12 30 -16 17 -4 30 -10 30 -15
0 -4 11 -11 25 -14 14 -4 25 -10 25 -15 0 -5 13 -12 30 -16 16 -4 30 -11 30
-16 0 -5 7 -9 15 -9 9 0 18 -6 21 -14 3 -8 19 -18 35 -21 16 -4 29 -11 29 -16
0 -5 11 -11 25 -15 14 -3 25 -10 25 -14 0 -5 13 -11 29 -15 16 -3 32 -13 35
-21 3 -8 12 -14 21 -14 8 0 15 -4 15 -9 0 -5 13 -12 30 -16 16 -4 30 -11 30
-16 0 -5 11 -11 25 -15 14 -3 25 -10 25 -14 0 -5 13 -11 29 -15 16 -3 32 -13
35 -21 3 -8 12 -14 21 -14 8 0 15 -4 15 -9 0 -5 11 -12 25 -15 14 -4 25 -10
25 -15 0 -5 13 -12 30 -16 17 -4 30 -11 30 -16 0 -5 7 -9 15 -9 9 0 18 -6 21
-14 3 -8 19 -18 35 -21 16 -4 29 -10 29 -15 0 -4 11 -11 25 -14 14 -4 25 -10
25 -15 0 -5 14 -12 30 -16 17 -4 30 -11 30 -16 0 -5 6 -9 14 -9 8 0 16 -7 20
-15 3 -8 12 -15 21 -15 8 0 15 -4 15 -9 0 -5 11 -12 25 -15 14 -4 25 -10 25
-15 0 -5 14 -12 30 -16 17 -4 30 -11 30 -16 0 -5 7 -9 15 -9 9 0 18 -6 21 -14
3 -8 21 -17 40 -20 19 -4 34 -11 34 -16 0 -6 7 -10 15 -10 9 0 18 -6 21 -14 3
-8 19 -18 35 -21 16 -4 29 -10 29 -15 0 -4 11 -11 25 -14 14 -4 25 -10 25 -15
0 -5 14 -12 30 -16 17 -4 30 -10 30 -15 0 -4 12 -11 27 -15 15 -3 31 -11 34
-17 9 -14 209 -14 218 0 3 6 19 14 34 17 15 4 27 11 27 15 0 5 14 11 30 15 17
4 30 11 30 16 0 5 11 11 25 15 14 3 25 10 25 14 0 5 13 11 29 15 16 3 32 13
35 21 3 8 12 14 21 14 8 0 15 4 15 9 0 5 14 12 30 16 17 4 30 11 30 16 0 5 11
11 25 15 14 3 25 10 25 14 0 5 13 11 29 15 16 3 32 13 35 21 3 8 12 14 21 14
8 0 15 4 15 9 0 5 11 12 25 15 14 4 25 11 25 16 0 6 7 10 15 10 8 0 15 4 15 9
0 5 14 12 30 16 17 4 30 11 30 16 0 5 11 11 25 15 14 3 25 10 25 14 0 5 13 11
29 15 16 3 32 13 35 21 3 8 12 14 21 14 8 0 15 4 15 9 0 5 14 12 30 16 17 4
30 11 30 16 0 5 11 11 25 15 14 3 25 10 25 15 0 5 7 9 15 9 9 0 18 6 21 14 3
8 19 18 35 21 16 4 29 10 29 15 0 4 11 11 25 14 14 4 25 10 25 15 0 5 14 12
30 16 17 4 30 11 30 16 0 5 7 9 15 9 9 0 18 6 21 14 3 8 19 18 35 21 16 4 29
10 29 15 0 4 11 11 25 14 14 4 25 10 25 15 0 5 13 12 29 16 16 3 32 13 35 21
3 8 12 14 21 14 8 0 15 4 15 9 0 5 14 12 30 16 17 4 30 11 30 16 0 5 11 11 25
15 14 3 25 10 25 14 0 5 13 11 29 15 16 3 32 13 35 21 3 8 12 14 21 14 8 0 15
4 15 9 0 5 14 12 30 16 17 4 30 11 30 16 0 5 11 11 25 15 14 3 25 10 25 14 0
5 14 11 30 15 17 4 30 11 30 16 0 5 11 11 25 15 14 3 25 10 25 15 0 5 7 9 15
9 9 0 18 6 21 14 3 8 19 18 35 21 16 4 29 10 29 15 0 4 11 11 25 14 14 4 25
10 25 15 0 5 14 12 30 16 17 4 30 11 30 16 0 5 7 9 15 9 9 0 18 6 21 14 3 8
19 18 35 21 16 4 29 10 29 15 0 4 11 11 25 14 14 4 25 10 25 15 0 5 13 12 29
16 16 3 32 13 35 21 3 8 12 14 21 14 8 0 15 4 15 9 0 5 10 13 22 16 25 9 68
53 68 70 0 7 7 15 15 19 8 3 15 12 15 20 0 8 4 16 10 18 5 2 13 31 16 66 4 34
11 62 15 62 5 0 9 571 9 1270 0 702 -4 1270 -9 1270 -4 0 -11 26 -14 57 -3 32
-11 59 -17 61 -5 2 -10 10 -10 18 0 8 -9 22 -20 31 -11 10 -20 21 -20 25 0 14
-34 48 -47 48 -7 0 -13 4 -13 10 0 5 -11 12 -24 16 -14 3 -27 12 -30 20 -3 8
-12 14 -21 14 -8 0 -15 4 -15 9 0 5 -11 12 -25 15 -14 4 -25 10 -25 15 0 5
-13 12 -30 16 -16 4 -30 11 -30 16 0 5 -7 9 -15 9 -9 0 -18 6 -21 14 -3 8 -19
18 -35 21 -16 4 -29 10 -29 15 0 4 -11 11 -25 14 -14 4 -25 10 -25 15 0 5 -13
12 -30 16 -16 4 -30 11 -30 16 0 5 -7 9 -15 9 -9 0 -18 6 -21 14 -3 8 -19 18
-35 21 -16 4 -29 11 -29 16 0 5 -11 11 -25 15 -14 3 -25 10 -25 14 0 5 -13 11
-30 15 -16 4 -30 11 -30 16 0 5 -11 11 -25 15 -14 3 -25 10 -25 14 0 5 -13 11
-29 15 -16 3 -32 13 -35 21 -3 8 -12 14 -21 14 -8 0 -15 4 -15 9 0 5 -12 12
-27 16 -15 3 -34 15 -43 25 -9 10 -28 22 -43 25 -15 4 -27 11 -27 16 0 5 -7 9
-15 9 -9 0 -18 6 -21 14 -3 8 -19 18 -35 21 -16 4 -29 11 -29 16 0 5 -11 11
-25 15 -14 3 -25 10 -25 14 0 5 -13 11 -29 15 -16 3 -32 13 -35 21 -3 8 -12
14 -21 14 -8 0 -15 4 -15 9 0 5 -13 12 -30 16 -16 4 -30 11 -30 16 0 5 -11 11
-25 15 -14 3 -25 10 -25 14 0 5 -13 11 -29 15 -16 3 -32 13 -35 21 -3 8 -12
14 -21 14 -8 0 -15 4 -15 9 0 5 -11 12 -25 15 -14 4 -25 10 -25 15 0 5 -13 12
-30 16 -16 4 -30 11 -30 16 0 5 -7 9 -15 9 -9 0 -18 6 -21 14 -3 8 -19 18 -35
21 -16 4 -29 10 -29 15 0 4 -11 11 -25 14 -14 4 -25 10 -25 15 0 5 -13 12 -30
16 -16 4 -30 10 -30 15 0 4 -11 11 -25 14 -14 4 -25 10 -25 15 0 5 -13 12 -29
16 -16 3 -32 13 -35 21 -3 8 -12 14 -21 14 -8 0 -15 4 -15 9 0 5 -13 12 -30
16 -16 4 -30 11 -30 16 0 5 -11 11 -25 15 -14 3 -25 10 -25 14 0 5 -13 11 -29
15 -16 3 -32 13 -35 21 -3 8 -12 14 -21 14 -8 0 -15 4 -15 9 0 5 -13 12 -30
16 -16 4 -30 11 -30 16 0 5 -11 11 -25 15 -14 3 -25 10 -25 14 0 4 -12 11 -27
15 -15 3 -31 11 -34 17 -4 6 -32 13 -63 16 -31 2 -56 8 -56 13 0 5 -9 9 -20 9
-11 0 -20 -4 -20 -9z m660 -1518 c0 -5 13 -20 30 -33 16 -14 29 -29 30 -34 0
-5 11 -19 24 -31 13 -12 27 -32 31 -43 3 -12 11 -22 16 -22 5 0 13 -8 16 -17
4 -10 19 -31 35 -46 15 -16 28 -33 28 -38 0 -6 11 -20 25 -33 14 -13 25 -29
25 -35 0 -6 7 -14 15 -17 8 -3 17 -15 20 -25 4 -11 20 -33 36 -50 16 -16 29
-34 29 -40 0 -5 11 -20 25 -33 14 -13 25 -27 25 -32 0 -5 13 -21 29 -35 15
-14 31 -35 35 -47 4 -12 12 -22 17 -22 5 0 13 -8 16 -17 4 -10 19 -31 35 -46
15 -16 28 -33 28 -38 0 -6 11 -20 25 -33 14 -13 25 -27 25 -32 0 -5 13 -21 29
-35 15 -14 31 -35 35 -47 4 -12 12 -22 17 -22 5 0 13 -8 16 -17 4 -10 19 -31
35 -46 15 -16 28 -33 28 -38 0 -6 11 -20 25 -33 14 -13 25 -27 25 -32 0 -5 15
-22 33 -38 l32 -29 0 -185 c0 -137 -3 -186 -12 -189 -7 -3 -15 -20 -19 -39 -3
-19 -10 -34 -14 -34 -4 0 -11 -16 -14 -35 -4 -19 -11 -35 -16 -35 -4 0 -11
-13 -15 -30 -4 -17 -10 -30 -15 -30 -5 0 -11 -13 -15 -30 -4 -16 -10 -30 -15
-30 -5 0 -11 -13 -15 -30 -4 -16 -10 -30 -15 -30 -4 0 -10 -18 -14 -40 -3 -22
-10 -40 -15 -40 -5 0 -12 -13 -16 -30 -4 -16 -10 -30 -15 -30 -5 0 -11 -13
-15 -30 -4 -16 -10 -30 -15 -30 -5 0 -11 -14 -15 -30 -4 -17 -10 -30 -15 -30
-5 0 -11 -13 -15 -30 -4 -16 -10 -30 -15 -30 -5 0 -11 -13 -15 -30 -4 -17 -11
-30 -16 -30 -5 0 -9 -6 -9 -13 0 -7 -9 -20 -20 -30 -18 -15 -51 -17 -325 -17
l-305 0 0 88 c0 48 -4 92 -8 99 -4 6 -20 15 -35 18 -15 4 -27 11 -27 15 0 4
-11 11 -25 14 -14 4 -25 10 -25 15 0 5 -13 12 -30 16 -16 4 -30 11 -30 16 0 5
-7 9 -15 9 -9 0 -18 6 -21 14 -3 8 -19 18 -35 21 -16 4 -29 10 -29 15 0 4 -11
11 -25 14 -14 4 -25 10 -25 15 0 5 -13 12 -30 16 -16 4 -30 11 -30 16 0 5 -7
9 -15 9 -9 0 -18 6 -21 14 -3 8 -19 18 -35 21 -16 4 -29 10 -29 15 0 4 -11 11
-25 14 -14 4 -25 10 -25 15 0 5 -13 12 -30 16 -16 4 -30 11 -30 16 0 5 -7 9
-15 9 -9 0 -18 7 -21 15 -7 16 -54 21 -54 6 0 -5 -13 -12 -29 -16 -16 -3 -32
-13 -35 -21 -3 -8 -12 -14 -21 -14 -8 0 -15 -4 -15 -9 0 -5 -11 -12 -25 -15
-14 -4 -25 -11 -25 -16 0 -6 -7 -10 -15 -10 -9 0 -18 -6 -21 -14 -3 -8 -19
-18 -35 -21 -16 -4 -29 -11 -29 -16 0 -5 -11 -11 -25 -15 -14 -3 -25 -10 -25
-14 0 -4 -11 -11 -25 -14 -14 -4 -25 -11 -25 -16 0 -6 -7 -10 -15 -10 -9 0
-18 -6 -21 -14 -3 -8 -19 -18 -35 -21 -16 -4 -29 -11 -29 -16 0 -5 -11 -11
-25 -15 -14 -3 -25 -10 -25 -15 0 -5 -7 -9 -15 -9 -9 0 -18 -6 -21 -14 -3 -8
-16 -17 -30 -20 -13 -4 -24 -10 -24 -15 0 -5 -13 -12 -29 -16 -16 -3 -32 -13
-35 -21 -3 -8 -12 -14 -20 -14 -8 0 -16 -6 -18 -12 -4 -10 -49 -14 -168 -16
-90 -2 -173 -1 -185 2 -22 6 -23 11 -27 121 -2 69 -8 119 -14 123 -6 4 -14 24
-18 45 -4 20 -11 37 -15 37 -5 0 -12 16 -15 35 -4 19 -11 35 -15 35 -5 0 -12
20 -15 45 -4 25 -11 45 -16 45 -5 0 -11 14 -15 30 -4 17 -10 30 -15 30 -4 0
-11 23 -15 50 -4 28 -11 50 -15 50 -5 0 -12 16 -16 35 -3 19 -10 35 -14 35 -4
0 -11 20 -14 45 -4 25 -11 45 -15 45 -5 0 -12 20 -15 45 -4 25 -11 45 -16 45
-5 0 -12 17 -16 38 -4 20 -11 39 -15 42 -4 3 -11 25 -15 48 -5 35 -4 43 12 49
11 4 25 13 32 20 7 7 20 13 28 13 8 0 14 4 14 9 0 5 14 12 30 16 16 4 30 10
30 15 0 5 13 11 30 15 16 4 30 10 30 15 0 5 13 11 30 15 17 4 30 10 30 15 0 5
14 11 30 15 16 4 30 10 30 15 0 5 13 11 30 15 16 4 30 10 30 15 0 5 13 11 30
15 17 4 30 10 30 15 0 5 14 11 30 15 16 4 30 10 30 15 0 4 11 11 25 14 30 8
60 36 70 65 3 12 11 21 16 21 5 0 9 6 9 13 0 7 9 20 20 30 11 9 20 23 20 31 0
8 7 16 15 20 8 3 15 11 15 17 0 6 11 22 24 34 13 12 27 32 31 43 3 12 11 22
16 22 5 0 9 6 9 13 0 7 9 20 20 30 11 9 20 24 20 32 0 8 4 15 9 15 5 0 13 10
16 22 4 11 18 31 31 43 13 12 24 28 24 34 0 6 7 14 15 17 8 4 15 12 15 20 0 8
9 22 20 31 11 10 20 23 20 30 0 7 4 13 9 13 5 0 13 10 16 22 4 11 18 31 31 43
13 12 24 26 24 31 0 5 9 17 20 27 11 9 20 23 20 31 0 8 7 17 16 20 29 11 684
7 684 -4 0 -6 -11 -21 -25 -34 -14 -13 -25 -29 -25 -35 0 -6 -7 -14 -15 -17
-8 -3 -17 -15 -21 -27 -4 -12 -20 -32 -35 -46 -16 -14 -29 -31 -29 -38 0 -7
-4 -13 -10 -13 -21 0 -9 -20 15 -26 14 -3 25 -10 25 -14 0 -5 14 -11 30 -15
17 -4 30 -10 30 -15 0 -5 13 -11 29 -15 16 -3 32 -13 35 -21 3 -8 12 -14 21
-14 8 0 15 -4 15 -9 0 -5 14 -12 30 -16 17 -4 30 -11 30 -16 0 -5 7 -9 15 -9
8 0 15 -4 15 -9 0 -5 11 -12 25 -15 14 -4 25 -10 25 -15 0 -5 14 -12 30 -16
17 -4 30 -10 30 -15 0 -5 14 -11 30 -15 17 -4 30 -10 30 -15 0 -4 9 -10 20
-13 20 -5 20 0 20 274 0 287 5 326 37 293 7 -7 13 -16 13 -21z m415 -2420 c-3
-16 -11 -29 -16 -31 -5 -2 -9 -10 -9 -18 0 -8 -6 -17 -14 -20 -8 -3 -18 -19
-21 -35 -4 -16 -10 -29 -15 -29 -5 0 -11 -13 -15 -30 -4 -16 -11 -30 -16 -30
-5 0 -9 -7 -9 -15 0 -24 -118 -21 -127 3 -4 9 -13 23 -20 30 -7 7 -13 19 -13
27 0 7 -7 15 -15 19 -8 3 -15 12 -15 21 0 8 -4 15 -9 15 -5 0 -12 11 -15 25
-4 14 -11 25 -16 25 -6 0 -10 6 -10 14 0 8 -7 16 -15 20 -8 3 -15 12 -15 21 0
13 27 15 196 15 l196 0 -7 -27z"/>
</g>
</svg>
